<mxfile host="app.diagrams.net" agent="Mozilla/5.0 (X11; Linux x86_64) AppleWebKit/537.36 (KHTML, like Gecko) Chrome/130.0.0.0 Safari/537.36" version="26.1.1">
  <diagram name="Page-1" id="GH_gdHOHP7D1uQ-BU8Qe">
    <mxGraphModel grid="1" page="1" gridSize="10" guides="1" tooltips="1" connect="1" arrows="1" fold="1" pageScale="1" pageWidth="827" pageHeight="1169" math="0" shadow="0">
      <root>
        <mxCell id="0" />
        <mxCell id="1" parent="0" />
        <mxCell id="XXqSQQRsY7wH4g8h98Lb-213" value="" style="rounded=0;whiteSpace=wrap;html=1;" vertex="1" parent="1">
          <mxGeometry x="18" y="1540" width="900" height="3070" as="geometry" />
        </mxCell>
        <mxCell id="XXqSQQRsY7wH4g8h98Lb-107" value="" style="rounded=0;whiteSpace=wrap;html=1;" vertex="1" parent="1">
          <mxGeometry x="378" y="670" width="950" height="825" as="geometry" />
        </mxCell>
        <mxCell id="XXqSQQRsY7wH4g8h98Lb-89" value="" style="rounded=0;whiteSpace=wrap;html=1;" vertex="1" parent="1">
          <mxGeometry x="428" y="865" width="420" height="575" as="geometry" />
        </mxCell>
        <mxCell id="XXqSQQRsY7wH4g8h98Lb-34" value="" style="rounded=0;whiteSpace=wrap;html=1;movable=1;resizable=1;rotatable=1;deletable=1;editable=1;locked=0;connectable=1;" vertex="1" parent="1">
          <mxGeometry x="-760" y="240" width="610" height="400" as="geometry" />
        </mxCell>
        <mxCell id="LVjDUJ06D1cnNg4i_e7i-11" value="" style="edgeStyle=orthogonalEdgeStyle;rounded=0;orthogonalLoop=1;jettySize=auto;html=1;exitX=1;exitY=0.5;exitDx=0;exitDy=0;" edge="1" parent="1" source="XXqSQQRsY7wH4g8h98Lb-31" target="LVjDUJ06D1cnNg4i_e7i-9">
          <mxGeometry relative="1" as="geometry">
            <mxPoint x="58" y="410" as="sourcePoint" />
          </mxGeometry>
        </mxCell>
        <mxCell id="XXqSQQRsY7wH4g8h98Lb-111" style="edgeStyle=orthogonalEdgeStyle;rounded=0;orthogonalLoop=1;jettySize=auto;html=1;exitX=1;exitY=0.5;exitDx=0;exitDy=0;" edge="1" parent="1" source="LVjDUJ06D1cnNg4i_e7i-9" target="XXqSQQRsY7wH4g8h98Lb-107">
          <mxGeometry relative="1" as="geometry" />
        </mxCell>
        <mxCell id="LVjDUJ06D1cnNg4i_e7i-9" value="API Gateway&lt;br&gt;External" style="rounded=1;whiteSpace=wrap;html=1;" vertex="1" parent="1">
          <mxGeometry x="168" y="520" width="120" height="60" as="geometry" />
        </mxCell>
        <mxCell id="LVjDUJ06D1cnNg4i_e7i-10" value="API Gateway&lt;br&gt;Internal" style="rounded=1;whiteSpace=wrap;html=1;" vertex="1" parent="1">
          <mxGeometry x="155" y="820" width="120" height="60" as="geometry" />
        </mxCell>
        <mxCell id="LVjDUJ06D1cnNg4i_e7i-23" value="&lt;h1 style=&quot;margin-top: 0px;&quot;&gt;&lt;font style=&quot;font-size: 12px;&quot;&gt;Features&lt;/font&gt;&lt;/h1&gt;&lt;div&gt;- Calls the proxy end points related to prediction&lt;/div&gt;&lt;div&gt;- Polls for Async prediction calls&lt;/div&gt;&lt;div&gt;- Circuit breaker set to 20 failures per minute - timeout 60 for streamlit environment&lt;br&gt;&lt;/div&gt;&lt;div&gt;- Circuit breaker set to 10 failures per minute - timeout 60 for other environments(Vipas UI and external)&lt;br&gt;- Validates Input size to be less than 10 MB&lt;/div&gt;&lt;div&gt;&lt;br&gt;&lt;/div&gt;" style="text;html=1;whiteSpace=wrap;overflow=hidden;rounded=0;" vertex="1" parent="1">
          <mxGeometry x="-760" y="40" width="240" height="190" as="geometry" />
        </mxCell>
        <mxCell id="XXqSQQRsY7wH4g8h98Lb-6" value="&lt;h1 style=&quot;margin-top: 0px;&quot;&gt;&lt;font style=&quot;font-size: 12px;&quot;&gt;Features&lt;/font&gt;&lt;/h1&gt;&lt;div&gt;- Routes SDK API calls to vipas proxy Load Balancer&lt;/div&gt;&lt;div&gt;- Validates that headers should contain vps auth token field&lt;/div&gt;&lt;div&gt;- Publicly available at API : proxy.vipas.ai (set at Route53)&lt;/div&gt;" style="text;html=1;whiteSpace=wrap;overflow=hidden;rounded=0;" vertex="1" parent="1">
          <mxGeometry x="128" y="380" width="260" height="140" as="geometry" />
        </mxCell>
        <mxCell id="XXqSQQRsY7wH4g8h98Lb-9" value="&lt;h1 style=&quot;margin-top: 0px;&quot;&gt;&lt;font style=&quot;font-size: 12px;&quot;&gt;Features (API Gateway)&lt;/font&gt;&lt;/h1&gt;&lt;div&gt;- Routes SDK API calls to vipas proxy Load Balancer&lt;/div&gt;&lt;div&gt;- Validates that headers should contain vps auth token field&lt;/div&gt;" style="text;html=1;whiteSpace=wrap;overflow=hidden;rounded=0;" vertex="1" parent="1">
          <mxGeometry x="-760" y="750" width="210" height="140" as="geometry" />
        </mxCell>
        <mxCell id="XXqSQQRsY7wH4g8h98Lb-10" value="&lt;h1 style=&quot;margin-top: 0px;&quot;&gt;&lt;font style=&quot;font-size: 12px;&quot;&gt;Features (Proxy)&lt;/font&gt;&lt;/h1&gt;&lt;div&gt;- Authenticates the prediction requests using JWT token sent in headers, API call is triggered to User Admin&lt;/div&gt;&lt;div&gt;- Caches the status and results of async prediction.&lt;/div&gt;" style="text;html=1;whiteSpace=wrap;overflow=hidden;rounded=0;" vertex="1" parent="1">
          <mxGeometry x="1098" y="695" width="210" height="140" as="geometry" />
        </mxCell>
        <mxCell id="XXqSQQRsY7wH4g8h98Lb-24" value="" style="edgeStyle=orthogonalEdgeStyle;rounded=0;orthogonalLoop=1;jettySize=auto;html=1;movable=1;resizable=1;rotatable=1;deletable=1;editable=1;locked=0;connectable=1;" edge="1" parent="1" source="XXqSQQRsY7wH4g8h98Lb-13" target="XXqSQQRsY7wH4g8h98Lb-23">
          <mxGeometry relative="1" as="geometry" />
        </mxCell>
        <mxCell id="XXqSQQRsY7wH4g8h98Lb-13" value="predict()" style="rounded=1;whiteSpace=wrap;html=1;movable=1;resizable=1;rotatable=1;deletable=1;editable=1;locked=0;connectable=1;" vertex="1" parent="1">
          <mxGeometry x="-515" y="265" width="120" height="60" as="geometry" />
        </mxCell>
        <mxCell id="XXqSQQRsY7wH4g8h98Lb-26" value="" style="edgeStyle=orthogonalEdgeStyle;rounded=0;orthogonalLoop=1;jettySize=auto;html=1;movable=1;resizable=1;rotatable=1;deletable=1;editable=1;locked=0;connectable=1;" edge="1" parent="1" source="XXqSQQRsY7wH4g8h98Lb-23" target="XXqSQQRsY7wH4g8h98Lb-25">
          <mxGeometry relative="1" as="geometry" />
        </mxCell>
        <mxCell id="XXqSQQRsY7wH4g8h98Lb-28" value="" style="edgeStyle=orthogonalEdgeStyle;rounded=0;orthogonalLoop=1;jettySize=auto;html=1;movable=1;resizable=1;rotatable=1;deletable=1;editable=1;locked=0;connectable=1;" edge="1" parent="1" source="XXqSQQRsY7wH4g8h98Lb-23" target="XXqSQQRsY7wH4g8h98Lb-27">
          <mxGeometry relative="1" as="geometry" />
        </mxCell>
        <mxCell id="XXqSQQRsY7wH4g8h98Lb-23" value="if async_mode" style="rhombus;whiteSpace=wrap;html=1;movable=1;resizable=1;rotatable=1;deletable=1;editable=1;locked=0;connectable=1;" vertex="1" parent="1">
          <mxGeometry x="-506.5" y="370" width="103" height="80" as="geometry" />
        </mxCell>
        <mxCell id="XXqSQQRsY7wH4g8h98Lb-30" value="" style="edgeStyle=orthogonalEdgeStyle;rounded=0;orthogonalLoop=1;jettySize=auto;html=1;movable=1;resizable=1;rotatable=1;deletable=1;editable=1;locked=0;connectable=1;" edge="1" parent="1" source="XXqSQQRsY7wH4g8h98Lb-25" target="XXqSQQRsY7wH4g8h98Lb-29">
          <mxGeometry relative="1" as="geometry" />
        </mxCell>
        <mxCell id="XXqSQQRsY7wH4g8h98Lb-25" value="Validate input size for async mode" style="rounded=1;whiteSpace=wrap;html=1;movable=1;resizable=1;rotatable=1;deletable=1;editable=1;locked=0;connectable=1;" vertex="1" parent="1">
          <mxGeometry x="-698" y="380" width="120" height="60" as="geometry" />
        </mxCell>
        <mxCell id="XXqSQQRsY7wH4g8h98Lb-32" value="" style="edgeStyle=orthogonalEdgeStyle;rounded=0;orthogonalLoop=1;jettySize=auto;html=1;movable=1;resizable=1;rotatable=1;deletable=1;editable=1;locked=0;connectable=1;" edge="1" parent="1" source="XXqSQQRsY7wH4g8h98Lb-27" target="XXqSQQRsY7wH4g8h98Lb-31">
          <mxGeometry relative="1" as="geometry" />
        </mxCell>
        <mxCell id="XXqSQQRsY7wH4g8h98Lb-27" value="Validate input size for sync mode" style="rounded=1;whiteSpace=wrap;html=1;movable=1;resizable=1;rotatable=1;deletable=1;editable=1;locked=0;connectable=1;" vertex="1" parent="1">
          <mxGeometry x="-332" y="380" width="120" height="60" as="geometry" />
        </mxCell>
        <mxCell id="XXqSQQRsY7wH4g8h98Lb-37" style="edgeStyle=orthogonalEdgeStyle;rounded=0;orthogonalLoop=1;jettySize=auto;html=1;exitX=1;exitY=0.5;exitDx=0;exitDy=0;entryX=0.5;entryY=1;entryDx=0;entryDy=0;" edge="1" parent="1" source="XXqSQQRsY7wH4g8h98Lb-29" target="LVjDUJ06D1cnNg4i_e7i-9">
          <mxGeometry relative="1" as="geometry">
            <Array as="points">
              <mxPoint x="-578" y="600" />
              <mxPoint x="228" y="600" />
            </Array>
          </mxGeometry>
        </mxCell>
        <mxCell id="XXqSQQRsY7wH4g8h98Lb-29" value="Start poling for async prediction" style="rounded=1;whiteSpace=wrap;html=1;movable=1;resizable=1;rotatable=1;deletable=1;editable=1;locked=0;connectable=1;" vertex="1" parent="1">
          <mxGeometry x="-698" y="560" width="120" height="60" as="geometry" />
        </mxCell>
        <mxCell id="XXqSQQRsY7wH4g8h98Lb-31" value="Call prediction API for sync mode" style="rounded=1;whiteSpace=wrap;html=1;movable=1;resizable=1;rotatable=1;deletable=1;editable=1;locked=0;connectable=1;" vertex="1" parent="1">
          <mxGeometry x="-332" y="520" width="120" height="60" as="geometry" />
        </mxCell>
        <mxCell id="XXqSQQRsY7wH4g8h98Lb-35" value="Vipas SDK" style="rounded=0;whiteSpace=wrap;html=1;" vertex="1" parent="1">
          <mxGeometry x="-742" y="250" width="120" height="60" as="geometry" />
        </mxCell>
        <mxCell id="XXqSQQRsY7wH4g8h98Lb-39" value="" style="rounded=0;whiteSpace=wrap;html=1;movable=1;resizable=1;rotatable=1;deletable=1;editable=1;locked=0;connectable=1;" vertex="1" parent="1">
          <mxGeometry x="-760" y="890" width="610" height="400" as="geometry" />
        </mxCell>
        <mxCell id="XXqSQQRsY7wH4g8h98Lb-40" value="" style="edgeStyle=orthogonalEdgeStyle;rounded=0;orthogonalLoop=1;jettySize=auto;html=1;movable=1;resizable=1;rotatable=1;deletable=1;editable=1;locked=0;connectable=1;" edge="1" parent="1" source="XXqSQQRsY7wH4g8h98Lb-41" target="XXqSQQRsY7wH4g8h98Lb-44">
          <mxGeometry relative="1" as="geometry" />
        </mxCell>
        <mxCell id="XXqSQQRsY7wH4g8h98Lb-41" value="predict()" style="rounded=1;whiteSpace=wrap;html=1;movable=1;resizable=1;rotatable=1;deletable=1;editable=1;locked=0;connectable=1;" vertex="1" parent="1">
          <mxGeometry x="-515" y="915" width="120" height="60" as="geometry" />
        </mxCell>
        <mxCell id="XXqSQQRsY7wH4g8h98Lb-42" value="" style="edgeStyle=orthogonalEdgeStyle;rounded=0;orthogonalLoop=1;jettySize=auto;html=1;movable=1;resizable=1;rotatable=1;deletable=1;editable=1;locked=0;connectable=1;" edge="1" parent="1" source="XXqSQQRsY7wH4g8h98Lb-44" target="XXqSQQRsY7wH4g8h98Lb-46">
          <mxGeometry relative="1" as="geometry" />
        </mxCell>
        <mxCell id="XXqSQQRsY7wH4g8h98Lb-43" value="" style="edgeStyle=orthogonalEdgeStyle;rounded=0;orthogonalLoop=1;jettySize=auto;html=1;movable=1;resizable=1;rotatable=1;deletable=1;editable=1;locked=0;connectable=1;" edge="1" parent="1" source="XXqSQQRsY7wH4g8h98Lb-44" target="XXqSQQRsY7wH4g8h98Lb-48">
          <mxGeometry relative="1" as="geometry" />
        </mxCell>
        <mxCell id="XXqSQQRsY7wH4g8h98Lb-44" value="if async_mode" style="rhombus;whiteSpace=wrap;html=1;movable=1;resizable=1;rotatable=1;deletable=1;editable=1;locked=0;connectable=1;" vertex="1" parent="1">
          <mxGeometry x="-506.5" y="1020" width="103" height="80" as="geometry" />
        </mxCell>
        <mxCell id="XXqSQQRsY7wH4g8h98Lb-45" value="" style="edgeStyle=orthogonalEdgeStyle;rounded=0;orthogonalLoop=1;jettySize=auto;html=1;movable=1;resizable=1;rotatable=1;deletable=1;editable=1;locked=0;connectable=1;" edge="1" parent="1" source="XXqSQQRsY7wH4g8h98Lb-46" target="XXqSQQRsY7wH4g8h98Lb-49">
          <mxGeometry relative="1" as="geometry" />
        </mxCell>
        <mxCell id="XXqSQQRsY7wH4g8h98Lb-46" value="Validate input size for async mode" style="rounded=1;whiteSpace=wrap;html=1;movable=1;resizable=1;rotatable=1;deletable=1;editable=1;locked=0;connectable=1;" vertex="1" parent="1">
          <mxGeometry x="-698" y="1030" width="120" height="60" as="geometry" />
        </mxCell>
        <mxCell id="XXqSQQRsY7wH4g8h98Lb-47" value="" style="edgeStyle=orthogonalEdgeStyle;rounded=0;orthogonalLoop=1;jettySize=auto;html=1;movable=1;resizable=1;rotatable=1;deletable=1;editable=1;locked=0;connectable=1;" edge="1" parent="1" source="XXqSQQRsY7wH4g8h98Lb-48" target="XXqSQQRsY7wH4g8h98Lb-50">
          <mxGeometry relative="1" as="geometry" />
        </mxCell>
        <mxCell id="XXqSQQRsY7wH4g8h98Lb-48" value="Validate input size for sync mode" style="rounded=1;whiteSpace=wrap;html=1;movable=1;resizable=1;rotatable=1;deletable=1;editable=1;locked=0;connectable=1;" vertex="1" parent="1">
          <mxGeometry x="-332" y="1030" width="120" height="60" as="geometry" />
        </mxCell>
        <mxCell id="XXqSQQRsY7wH4g8h98Lb-53" style="edgeStyle=orthogonalEdgeStyle;rounded=0;orthogonalLoop=1;jettySize=auto;html=1;exitX=1;exitY=0.5;exitDx=0;exitDy=0;" edge="1" parent="1" source="XXqSQQRsY7wH4g8h98Lb-49" target="LVjDUJ06D1cnNg4i_e7i-10">
          <mxGeometry relative="1" as="geometry" />
        </mxCell>
        <mxCell id="XXqSQQRsY7wH4g8h98Lb-49" value="Start poling for async prediction" style="rounded=1;whiteSpace=wrap;html=1;movable=1;resizable=1;rotatable=1;deletable=1;editable=1;locked=0;connectable=1;" vertex="1" parent="1">
          <mxGeometry x="-698" y="1210" width="120" height="60" as="geometry" />
        </mxCell>
        <mxCell id="XXqSQQRsY7wH4g8h98Lb-52" style="edgeStyle=orthogonalEdgeStyle;rounded=0;orthogonalLoop=1;jettySize=auto;html=1;exitX=1;exitY=0.5;exitDx=0;exitDy=0;entryX=0;entryY=0.5;entryDx=0;entryDy=0;" edge="1" parent="1" source="XXqSQQRsY7wH4g8h98Lb-50" target="LVjDUJ06D1cnNg4i_e7i-10">
          <mxGeometry relative="1" as="geometry" />
        </mxCell>
        <mxCell id="XXqSQQRsY7wH4g8h98Lb-50" value="Call prediction API for sync mode" style="rounded=1;whiteSpace=wrap;html=1;movable=1;resizable=1;rotatable=1;deletable=1;editable=1;locked=0;connectable=1;" vertex="1" parent="1">
          <mxGeometry x="-332" y="1170" width="120" height="60" as="geometry" />
        </mxCell>
        <mxCell id="XXqSQQRsY7wH4g8h98Lb-51" value="Streamlit environment" style="rounded=0;whiteSpace=wrap;html=1;" vertex="1" parent="1">
          <mxGeometry x="-742" y="900" width="132" height="50" as="geometry" />
        </mxCell>
        <mxCell id="XXqSQQRsY7wH4g8h98Lb-55" value="Vipas Proxy" style="rounded=1;whiteSpace=wrap;html=1;" vertex="1" parent="1">
          <mxGeometry x="398" y="700" width="120" height="60" as="geometry" />
        </mxCell>
        <mxCell id="XXqSQQRsY7wH4g8h98Lb-63" value="" style="edgeStyle=orthogonalEdgeStyle;rounded=0;orthogonalLoop=1;jettySize=auto;html=1;" edge="1" parent="1" source="XXqSQQRsY7wH4g8h98Lb-57" target="XXqSQQRsY7wH4g8h98Lb-62">
          <mxGeometry relative="1" as="geometry" />
        </mxCell>
        <mxCell id="XXqSQQRsY7wH4g8h98Lb-57" value="if async_mode" style="rhombus;whiteSpace=wrap;html=1;" vertex="1" parent="1">
          <mxGeometry x="813" y="770" width="145" height="110" as="geometry" />
        </mxCell>
        <mxCell id="XXqSQQRsY7wH4g8h98Lb-72" value="" style="edgeStyle=orthogonalEdgeStyle;rounded=0;orthogonalLoop=1;jettySize=auto;html=1;" edge="1" parent="1" source="XXqSQQRsY7wH4g8h98Lb-60" target="XXqSQQRsY7wH4g8h98Lb-71">
          <mxGeometry relative="1" as="geometry" />
        </mxCell>
        <mxCell id="XXqSQQRsY7wH4g8h98Lb-60" value="Extract JWT token from header" style="rounded=1;whiteSpace=wrap;html=1;" vertex="1" parent="1">
          <mxGeometry x="538" y="905" width="120" height="60" as="geometry" />
        </mxCell>
        <mxCell id="XXqSQQRsY7wH4g8h98Lb-94" value="" style="edgeStyle=orthogonalEdgeStyle;rounded=0;orthogonalLoop=1;jettySize=auto;html=1;" edge="1" parent="1" source="XXqSQQRsY7wH4g8h98Lb-62" target="XXqSQQRsY7wH4g8h98Lb-93">
          <mxGeometry relative="1" as="geometry" />
        </mxCell>
        <mxCell id="XXqSQQRsY7wH4g8h98Lb-62" value="Generate transaction id for the prediction" style="rounded=1;whiteSpace=wrap;html=1;" vertex="1" parent="1">
          <mxGeometry x="1018" y="895" width="120" height="60" as="geometry" />
        </mxCell>
        <mxCell id="XXqSQQRsY7wH4g8h98Lb-64" value="NO" style="text;html=1;align=center;verticalAlign=middle;resizable=0;points=[];autosize=1;strokeColor=none;fillColor=none;" vertex="1" parent="1">
          <mxGeometry x="728" y="795" width="40" height="30" as="geometry" />
        </mxCell>
        <mxCell id="XXqSQQRsY7wH4g8h98Lb-65" value="YES" style="text;html=1;align=center;verticalAlign=middle;resizable=0;points=[];autosize=1;strokeColor=none;fillColor=none;" vertex="1" parent="1">
          <mxGeometry x="958" y="795" width="50" height="30" as="geometry" />
        </mxCell>
        <mxCell id="XXqSQQRsY7wH4g8h98Lb-76" value="" style="edgeStyle=orthogonalEdgeStyle;rounded=0;orthogonalLoop=1;jettySize=auto;html=1;" edge="1" parent="1" source="XXqSQQRsY7wH4g8h98Lb-71" target="XXqSQQRsY7wH4g8h98Lb-75">
          <mxGeometry relative="1" as="geometry" />
        </mxCell>
        <mxCell id="XXqSQQRsY7wH4g8h98Lb-84" value="" style="edgeStyle=orthogonalEdgeStyle;rounded=0;orthogonalLoop=1;jettySize=auto;html=1;" edge="1" parent="1" source="XXqSQQRsY7wH4g8h98Lb-71" target="XXqSQQRsY7wH4g8h98Lb-79">
          <mxGeometry relative="1" as="geometry" />
        </mxCell>
        <mxCell id="XXqSQQRsY7wH4g8h98Lb-71" value="if JWT token missing" style="rhombus;whiteSpace=wrap;html=1;" vertex="1" parent="1">
          <mxGeometry x="549.25" y="1030" width="97.5" height="80" as="geometry" />
        </mxCell>
        <mxCell id="XXqSQQRsY7wH4g8h98Lb-78" value="" style="edgeStyle=orthogonalEdgeStyle;rounded=0;orthogonalLoop=1;jettySize=auto;html=1;" edge="1" parent="1" source="XXqSQQRsY7wH4g8h98Lb-75" target="XXqSQQRsY7wH4g8h98Lb-77">
          <mxGeometry relative="1" as="geometry" />
        </mxCell>
        <mxCell id="XXqSQQRsY7wH4g8h98Lb-75" value="Call User Admin for Authentication" style="rounded=1;whiteSpace=wrap;html=1;" vertex="1" parent="1">
          <mxGeometry x="715.5" y="1040" width="120" height="60" as="geometry" />
        </mxCell>
        <mxCell id="XXqSQQRsY7wH4g8h98Lb-80" value="" style="edgeStyle=orthogonalEdgeStyle;rounded=0;orthogonalLoop=1;jettySize=auto;html=1;" edge="1" parent="1" source="XXqSQQRsY7wH4g8h98Lb-77" target="XXqSQQRsY7wH4g8h98Lb-79">
          <mxGeometry relative="1" as="geometry" />
        </mxCell>
        <mxCell id="XXqSQQRsY7wH4g8h98Lb-82" value="" style="edgeStyle=orthogonalEdgeStyle;rounded=0;orthogonalLoop=1;jettySize=auto;html=1;" edge="1" parent="1" source="XXqSQQRsY7wH4g8h98Lb-77" target="XXqSQQRsY7wH4g8h98Lb-81">
          <mxGeometry relative="1" as="geometry" />
        </mxCell>
        <mxCell id="XXqSQQRsY7wH4g8h98Lb-77" value="if authn successful" style="rhombus;whiteSpace=wrap;html=1;" vertex="1" parent="1">
          <mxGeometry x="725.5" y="1180" width="100" height="90" as="geometry" />
        </mxCell>
        <mxCell id="XXqSQQRsY7wH4g8h98Lb-79" value="Raise Relevant exception" style="rounded=1;whiteSpace=wrap;html=1;" vertex="1" parent="1">
          <mxGeometry x="538" y="1195" width="120" height="60" as="geometry" />
        </mxCell>
        <mxCell id="prCroOAfZP34Jap481pf-12" style="edgeStyle=orthogonalEdgeStyle;rounded=0;orthogonalLoop=1;jettySize=auto;html=1;exitX=0.5;exitY=1;exitDx=0;exitDy=0;entryX=0.5;entryY=0;entryDx=0;entryDy=0;" edge="1" parent="1" source="XXqSQQRsY7wH4g8h98Lb-81" target="prCroOAfZP34Jap481pf-10">
          <mxGeometry relative="1" as="geometry" />
        </mxCell>
        <mxCell id="XXqSQQRsY7wH4g8h98Lb-81" value="Call Model Gateway for Prediction" style="rounded=1;whiteSpace=wrap;html=1;" vertex="1" parent="1">
          <mxGeometry x="715.5" y="1335" width="120" height="60" as="geometry" />
        </mxCell>
        <mxCell id="XXqSQQRsY7wH4g8h98Lb-85" value="NO" style="text;html=1;align=center;verticalAlign=middle;resizable=0;points=[];autosize=1;strokeColor=none;fillColor=none;" vertex="1" parent="1">
          <mxGeometry x="658" y="1040" width="40" height="30" as="geometry" />
        </mxCell>
        <mxCell id="XXqSQQRsY7wH4g8h98Lb-86" value="NO" style="text;html=1;align=center;verticalAlign=middle;resizable=0;points=[];autosize=1;strokeColor=none;fillColor=none;" vertex="1" parent="1">
          <mxGeometry x="675.5" y="1195" width="40" height="30" as="geometry" />
        </mxCell>
        <mxCell id="XXqSQQRsY7wH4g8h98Lb-87" value="YES" style="text;html=1;align=center;verticalAlign=middle;resizable=0;points=[];autosize=1;strokeColor=none;fillColor=none;" vertex="1" parent="1">
          <mxGeometry x="549.25" y="1125" width="50" height="30" as="geometry" />
        </mxCell>
        <mxCell id="XXqSQQRsY7wH4g8h98Lb-88" value="YES" style="text;html=1;align=center;verticalAlign=middle;resizable=0;points=[];autosize=1;strokeColor=none;fillColor=none;" vertex="1" parent="1">
          <mxGeometry x="723" y="1280" width="50" height="30" as="geometry" />
        </mxCell>
        <mxCell id="XXqSQQRsY7wH4g8h98Lb-90" style="edgeStyle=orthogonalEdgeStyle;rounded=0;orthogonalLoop=1;jettySize=auto;html=1;exitX=0;exitY=0.5;exitDx=0;exitDy=0;entryX=0.545;entryY=0;entryDx=0;entryDy=0;entryPerimeter=0;" edge="1" parent="1" source="XXqSQQRsY7wH4g8h98Lb-57" target="XXqSQQRsY7wH4g8h98Lb-89">
          <mxGeometry relative="1" as="geometry" />
        </mxCell>
        <mxCell id="XXqSQQRsY7wH4g8h98Lb-91" value="Model Prediction Service" style="rounded=0;whiteSpace=wrap;html=1;" vertex="1" parent="1">
          <mxGeometry x="439.25" y="875" width="98.75" height="30" as="geometry" />
        </mxCell>
        <mxCell id="XXqSQQRsY7wH4g8h98Lb-98" value="" style="edgeStyle=orthogonalEdgeStyle;rounded=0;orthogonalLoop=1;jettySize=auto;html=1;" edge="1" parent="1" source="XXqSQQRsY7wH4g8h98Lb-93">
          <mxGeometry relative="1" as="geometry">
            <mxPoint x="1078" y="1195" as="targetPoint" />
          </mxGeometry>
        </mxCell>
        <mxCell id="XXqSQQRsY7wH4g8h98Lb-93" value="Add a background task to perform model_prediction_service with generated transaction id" style="rounded=1;whiteSpace=wrap;html=1;" vertex="1" parent="1">
          <mxGeometry x="995.5" y="1040" width="165" height="70" as="geometry" />
        </mxCell>
        <mxCell id="XXqSQQRsY7wH4g8h98Lb-99" value="Background Tasks" style="rounded=1;whiteSpace=wrap;html=1;" vertex="1" parent="1">
          <mxGeometry x="1003" y="1195" width="145" height="70" as="geometry" />
        </mxCell>
        <mxCell id="XXqSQQRsY7wH4g8h98Lb-102" value="" style="edgeStyle=orthogonalEdgeStyle;rounded=0;orthogonalLoop=1;jettySize=auto;html=1;" edge="1" parent="1" source="XXqSQQRsY7wH4g8h98Lb-101" target="XXqSQQRsY7wH4g8h98Lb-57">
          <mxGeometry relative="1" as="geometry" />
        </mxCell>
        <mxCell id="XXqSQQRsY7wH4g8h98Lb-101" value="predict" style="rounded=0;whiteSpace=wrap;html=1;" vertex="1" parent="1">
          <mxGeometry x="836.1300000000001" y="700" width="98.75" height="30" as="geometry" />
        </mxCell>
        <mxCell id="XXqSQQRsY7wH4g8h98Lb-105" value="" style="edgeStyle=orthogonalEdgeStyle;rounded=0;orthogonalLoop=1;jettySize=auto;html=1;" edge="1" parent="1" source="XXqSQQRsY7wH4g8h98Lb-103" target="XXqSQQRsY7wH4g8h98Lb-99">
          <mxGeometry relative="1" as="geometry" />
        </mxCell>
        <mxCell id="XXqSQQRsY7wH4g8h98Lb-103" value="get status" style="rounded=0;whiteSpace=wrap;html=1;" vertex="1" parent="1">
          <mxGeometry x="1218" y="1165" width="98.75" height="30" as="geometry" />
        </mxCell>
        <mxCell id="XXqSQQRsY7wH4g8h98Lb-106" value="" style="edgeStyle=orthogonalEdgeStyle;rounded=0;orthogonalLoop=1;jettySize=auto;html=1;" edge="1" parent="1" source="XXqSQQRsY7wH4g8h98Lb-104" target="XXqSQQRsY7wH4g8h98Lb-99">
          <mxGeometry relative="1" as="geometry" />
        </mxCell>
        <mxCell id="XXqSQQRsY7wH4g8h98Lb-104" value="get result" style="rounded=0;whiteSpace=wrap;html=1;" vertex="1" parent="1">
          <mxGeometry x="1218" y="1250" width="98.75" height="30" as="geometry" />
        </mxCell>
        <mxCell id="XXqSQQRsY7wH4g8h98Lb-110" style="edgeStyle=orthogonalEdgeStyle;rounded=0;orthogonalLoop=1;jettySize=auto;html=1;exitX=1;exitY=0.5;exitDx=0;exitDy=0;entryX=-0.001;entryY=0.218;entryDx=0;entryDy=0;entryPerimeter=0;" edge="1" parent="1" source="LVjDUJ06D1cnNg4i_e7i-10" target="XXqSQQRsY7wH4g8h98Lb-107">
          <mxGeometry relative="1" as="geometry" />
        </mxCell>
        <mxCell id="XXqSQQRsY7wH4g8h98Lb-114" value="" style="edgeStyle=orthogonalEdgeStyle;rounded=0;orthogonalLoop=1;jettySize=auto;html=1;entryX=0.5;entryY=0;entryDx=0;entryDy=0;" edge="1" parent="1" source="XXqSQQRsY7wH4g8h98Lb-112" target="XXqSQQRsY7wH4g8h98Lb-115">
          <mxGeometry relative="1" as="geometry">
            <mxPoint x="188" y="1745.0000000000005" as="targetPoint" />
          </mxGeometry>
        </mxCell>
        <mxCell id="XXqSQQRsY7wH4g8h98Lb-112" value="Extract transaction_id, app_id, env_type" style="rounded=1;whiteSpace=wrap;html=1;" vertex="1" parent="1">
          <mxGeometry x="128" y="1645" width="120" height="60" as="geometry" />
        </mxCell>
        <mxCell id="XXqSQQRsY7wH4g8h98Lb-117" value="" style="edgeStyle=orthogonalEdgeStyle;rounded=0;orthogonalLoop=1;jettySize=auto;html=1;" edge="1" parent="1" source="XXqSQQRsY7wH4g8h98Lb-115" target="XXqSQQRsY7wH4g8h98Lb-116">
          <mxGeometry relative="1" as="geometry">
            <Array as="points">
              <mxPoint x="395.75" y="1790" />
            </Array>
          </mxGeometry>
        </mxCell>
        <mxCell id="XXqSQQRsY7wH4g8h98Lb-121" value="" style="edgeStyle=orthogonalEdgeStyle;rounded=0;orthogonalLoop=1;jettySize=auto;html=1;" edge="1" parent="1" source="XXqSQQRsY7wH4g8h98Lb-115" target="XXqSQQRsY7wH4g8h98Lb-120">
          <mxGeometry relative="1" as="geometry" />
        </mxCell>
        <mxCell id="XXqSQQRsY7wH4g8h98Lb-115" value="if env_type is null" style="rhombus;whiteSpace=wrap;html=1;" vertex="1" parent="1">
          <mxGeometry x="133.93999999999994" y="1745" width="108.12" height="90" as="geometry" />
        </mxCell>
        <mxCell id="XXqSQQRsY7wH4g8h98Lb-122" value="" style="edgeStyle=orthogonalEdgeStyle;rounded=0;orthogonalLoop=1;jettySize=auto;html=1;" edge="1" parent="1" source="XXqSQQRsY7wH4g8h98Lb-116" target="XXqSQQRsY7wH4g8h98Lb-120">
          <mxGeometry relative="1" as="geometry" />
        </mxCell>
        <mxCell id="XXqSQQRsY7wH4g8h98Lb-124" value="" style="edgeStyle=orthogonalEdgeStyle;rounded=0;orthogonalLoop=1;jettySize=auto;html=1;" edge="1" parent="1" source="XXqSQQRsY7wH4g8h98Lb-116" target="XXqSQQRsY7wH4g8h98Lb-123">
          <mxGeometry relative="1" as="geometry" />
        </mxCell>
        <mxCell id="XXqSQQRsY7wH4g8h98Lb-116" value="if transaction_id &lt;br&gt;is null" style="rhombus;whiteSpace=wrap;html=1;" vertex="1" parent="1">
          <mxGeometry x="321.68" y="1815" width="148.25" height="115" as="geometry" />
        </mxCell>
        <mxCell id="XXqSQQRsY7wH4g8h98Lb-120" value="Raise Relevant Exception" style="rounded=1;whiteSpace=wrap;html=1;" vertex="1" parent="1">
          <mxGeometry x="127.99999999999989" y="2000" width="120" height="60" as="geometry" />
        </mxCell>
        <mxCell id="XXqSQQRsY7wH4g8h98Lb-125" value="" style="edgeStyle=orthogonalEdgeStyle;rounded=0;orthogonalLoop=1;jettySize=auto;html=1;" edge="1" parent="1" source="XXqSQQRsY7wH4g8h98Lb-123" target="XXqSQQRsY7wH4g8h98Lb-120">
          <mxGeometry relative="1" as="geometry" />
        </mxCell>
        <mxCell id="XXqSQQRsY7wH4g8h98Lb-129" value="" style="edgeStyle=orthogonalEdgeStyle;rounded=0;orthogonalLoop=1;jettySize=auto;html=1;entryX=0.5;entryY=0;entryDx=0;entryDy=0;" edge="1" parent="1" source="XXqSQQRsY7wH4g8h98Lb-123" target="XXqSQQRsY7wH4g8h98Lb-130">
          <mxGeometry relative="1" as="geometry">
            <mxPoint x="395.80999999999995" y="2160.0000000000005" as="targetPoint" />
          </mxGeometry>
        </mxCell>
        <mxCell id="XXqSQQRsY7wH4g8h98Lb-123" value="if auth_token is null" style="rhombus;whiteSpace=wrap;html=1;" vertex="1" parent="1">
          <mxGeometry x="333.30999999999995" y="1980" width="125" height="100" as="geometry" />
        </mxCell>
        <mxCell id="XXqSQQRsY7wH4g8h98Lb-135" value="" style="edgeStyle=orthogonalEdgeStyle;rounded=0;orthogonalLoop=1;jettySize=auto;html=1;" edge="1" parent="1" source="XXqSQQRsY7wH4g8h98Lb-130" target="XXqSQQRsY7wH4g8h98Lb-134">
          <mxGeometry relative="1" as="geometry" />
        </mxCell>
        <mxCell id="XXqSQQRsY7wH4g8h98Lb-130" value="Validate Auth token using User Admin" style="rounded=1;whiteSpace=wrap;html=1;" vertex="1" parent="1">
          <mxGeometry x="335.81000000000006" y="2165" width="120" height="60" as="geometry" />
        </mxCell>
        <mxCell id="XXqSQQRsY7wH4g8h98Lb-142" value="" style="edgeStyle=orthogonalEdgeStyle;rounded=0;orthogonalLoop=1;jettySize=auto;html=1;" edge="1" parent="1" source="XXqSQQRsY7wH4g8h98Lb-134" target="XXqSQQRsY7wH4g8h98Lb-141">
          <mxGeometry relative="1" as="geometry" />
        </mxCell>
        <mxCell id="XXqSQQRsY7wH4g8h98Lb-202" value="" style="edgeStyle=orthogonalEdgeStyle;rounded=0;orthogonalLoop=1;jettySize=auto;html=1;" edge="1" parent="1" source="XXqSQQRsY7wH4g8h98Lb-134" target="XXqSQQRsY7wH4g8h98Lb-201">
          <mxGeometry relative="1" as="geometry" />
        </mxCell>
        <mxCell id="XXqSQQRsY7wH4g8h98Lb-134" value="if Authn successful" style="rhombus;whiteSpace=wrap;html=1;" vertex="1" parent="1">
          <mxGeometry x="506.75" y="2245" width="125" height="100" as="geometry" />
        </mxCell>
        <mxCell id="XXqSQQRsY7wH4g8h98Lb-152" value="" style="edgeStyle=orthogonalEdgeStyle;rounded=0;orthogonalLoop=1;jettySize=auto;html=1;" edge="1" parent="1" source="XXqSQQRsY7wH4g8h98Lb-136" target="XXqSQQRsY7wH4g8h98Lb-151">
          <mxGeometry relative="1" as="geometry">
            <Array as="points">
              <mxPoint x="385.75" y="2545" />
            </Array>
          </mxGeometry>
        </mxCell>
        <mxCell id="XXqSQQRsY7wH4g8h98Lb-204" value="" style="edgeStyle=orthogonalEdgeStyle;rounded=0;orthogonalLoop=1;jettySize=auto;html=1;" edge="1" parent="1" source="XXqSQQRsY7wH4g8h98Lb-136" target="XXqSQQRsY7wH4g8h98Lb-203">
          <mxGeometry relative="1" as="geometry" />
        </mxCell>
        <mxCell id="XXqSQQRsY7wH4g8h98Lb-136" value="validate balance" style="rhombus;whiteSpace=wrap;html=1;" vertex="1" parent="1">
          <mxGeometry x="497.53" y="2495" width="125" height="100" as="geometry" />
        </mxCell>
        <mxCell id="XXqSQQRsY7wH4g8h98Lb-143" value="" style="edgeStyle=orthogonalEdgeStyle;rounded=0;orthogonalLoop=1;jettySize=auto;html=1;" edge="1" parent="1" source="XXqSQQRsY7wH4g8h98Lb-141" target="XXqSQQRsY7wH4g8h98Lb-136">
          <mxGeometry relative="1" as="geometry" />
        </mxCell>
        <mxCell id="XXqSQQRsY7wH4g8h98Lb-141" value="validate balance using payment pricing" style="rounded=1;whiteSpace=wrap;html=1;" vertex="1" parent="1">
          <mxGeometry x="315.3399999999999" y="2383" width="160.94" height="100" as="geometry" />
        </mxCell>
        <mxCell id="XXqSQQRsY7wH4g8h98Lb-155" value="" style="edgeStyle=orthogonalEdgeStyle;rounded=0;orthogonalLoop=1;jettySize=auto;html=1;" edge="1" parent="1" source="XXqSQQRsY7wH4g8h98Lb-151" target="XXqSQQRsY7wH4g8h98Lb-154">
          <mxGeometry relative="1" as="geometry">
            <Array as="points">
              <mxPoint x="557.75" y="2635" />
            </Array>
          </mxGeometry>
        </mxCell>
        <mxCell id="XXqSQQRsY7wH4g8h98Lb-151" value="Retrieve list of authorised models for app" style="rounded=1;whiteSpace=wrap;html=1;" vertex="1" parent="1">
          <mxGeometry x="314.8699999999999" y="2595" width="140.94" height="80" as="geometry" />
        </mxCell>
        <mxCell id="XXqSQQRsY7wH4g8h98Lb-157" value="" style="edgeStyle=orthogonalEdgeStyle;rounded=0;orthogonalLoop=1;jettySize=auto;html=1;exitX=0;exitY=0.5;exitDx=0;exitDy=0;" edge="1" parent="1" source="XXqSQQRsY7wH4g8h98Lb-154" target="XXqSQQRsY7wH4g8h98Lb-156">
          <mxGeometry relative="1" as="geometry">
            <Array as="points">
              <mxPoint x="376.75" y="2725" />
            </Array>
          </mxGeometry>
        </mxCell>
        <mxCell id="XXqSQQRsY7wH4g8h98Lb-154" value="if model_id in &lt;br&gt;authorised model list" style="rhombus;whiteSpace=wrap;html=1;" vertex="1" parent="1">
          <mxGeometry x="478.30999999999995" y="2665" width="163.44" height="120" as="geometry" />
        </mxCell>
        <mxCell id="XXqSQQRsY7wH4g8h98Lb-161" style="edgeStyle=orthogonalEdgeStyle;rounded=0;orthogonalLoop=1;jettySize=auto;html=1;exitX=1;exitY=0.5;exitDx=0;exitDy=0;entryX=0.5;entryY=0;entryDx=0;entryDy=0;" edge="1" parent="1" source="XXqSQQRsY7wH4g8h98Lb-156" target="XXqSQQRsY7wH4g8h98Lb-160">
          <mxGeometry relative="1" as="geometry" />
        </mxCell>
        <mxCell id="XXqSQQRsY7wH4g8h98Lb-156" value="Retrieve owner entity id from Project Admin" style="rounded=1;whiteSpace=wrap;html=1;" vertex="1" parent="1">
          <mxGeometry x="306.9000000000001" y="2795" width="151.41" height="90" as="geometry" />
        </mxCell>
        <mxCell id="XXqSQQRsY7wH4g8h98Lb-163" value="" style="edgeStyle=orthogonalEdgeStyle;rounded=0;orthogonalLoop=1;jettySize=auto;html=1;" edge="1" parent="1" source="XXqSQQRsY7wH4g8h98Lb-160" target="XXqSQQRsY7wH4g8h98Lb-162">
          <mxGeometry relative="1" as="geometry" />
        </mxCell>
        <mxCell id="XXqSQQRsY7wH4g8h98Lb-209" value="" style="edgeStyle=orthogonalEdgeStyle;rounded=0;orthogonalLoop=1;jettySize=auto;html=1;" edge="1" parent="1" source="XXqSQQRsY7wH4g8h98Lb-160" target="XXqSQQRsY7wH4g8h98Lb-206">
          <mxGeometry relative="1" as="geometry" />
        </mxCell>
        <mxCell id="XXqSQQRsY7wH4g8h98Lb-160" value="if api_access == &quot;private&quot;&lt;div&gt;and owner_entity_id != &quot;caller_entity_id&quot;&lt;/div&gt;" style="rhombus;whiteSpace=wrap;html=1;" vertex="1" parent="1">
          <mxGeometry x="480.03" y="2895" width="209.22" height="140" as="geometry" />
        </mxCell>
        <mxCell id="XXqSQQRsY7wH4g8h98Lb-162" value="Raise 403 exception" style="rounded=1;whiteSpace=wrap;html=1;" vertex="1" parent="1">
          <mxGeometry x="768" y="2935" width="120" height="60" as="geometry" />
        </mxCell>
        <mxCell id="XXqSQQRsY7wH4g8h98Lb-167" value="" style="edgeStyle=orthogonalEdgeStyle;rounded=0;orthogonalLoop=1;jettySize=auto;html=1;" edge="1" parent="1" source="XXqSQQRsY7wH4g8h98Lb-164" target="XXqSQQRsY7wH4g8h98Lb-166">
          <mxGeometry relative="1" as="geometry" />
        </mxCell>
        <mxCell id="XXqSQQRsY7wH4g8h98Lb-164" value="Check if model and transformer are deployed and ready" style="rounded=1;whiteSpace=wrap;html=1;" vertex="1" parent="1">
          <mxGeometry x="524.3599999999999" y="3360" width="120" height="60" as="geometry" />
        </mxCell>
        <mxCell id="XXqSQQRsY7wH4g8h98Lb-169" value="" style="edgeStyle=orthogonalEdgeStyle;rounded=0;orthogonalLoop=1;jettySize=auto;html=1;" edge="1" parent="1" source="XXqSQQRsY7wH4g8h98Lb-166" target="XXqSQQRsY7wH4g8h98Lb-170">
          <mxGeometry relative="1" as="geometry">
            <mxPoint x="592.1300000000003" y="3642" as="targetPoint" />
          </mxGeometry>
        </mxCell>
        <mxCell id="prCroOAfZP34Jap481pf-4" value="" style="edgeStyle=orthogonalEdgeStyle;rounded=0;orthogonalLoop=1;jettySize=auto;html=1;" edge="1" parent="1" source="XXqSQQRsY7wH4g8h98Lb-166" target="prCroOAfZP34Jap481pf-3">
          <mxGeometry relative="1" as="geometry" />
        </mxCell>
        <mxCell id="XXqSQQRsY7wH4g8h98Lb-166" value="if ready" style="rhombus;whiteSpace=wrap;html=1;" vertex="1" parent="1">
          <mxGeometry x="522.1400000000001" y="3442" width="125" height="100" as="geometry" />
        </mxCell>
        <mxCell id="XXqSQQRsY7wH4g8h98Lb-172" value="" style="edgeStyle=orthogonalEdgeStyle;rounded=0;orthogonalLoop=1;jettySize=auto;html=1;" edge="1" parent="1" source="XXqSQQRsY7wH4g8h98Lb-170" target="XXqSQQRsY7wH4g8h98Lb-171">
          <mxGeometry relative="1" as="geometry" />
        </mxCell>
        <mxCell id="XXqSQQRsY7wH4g8h98Lb-174" value="" style="edgeStyle=orthogonalEdgeStyle;rounded=0;orthogonalLoop=1;jettySize=auto;html=1;" edge="1" parent="1" source="XXqSQQRsY7wH4g8h98Lb-170" target="XXqSQQRsY7wH4g8h98Lb-173">
          <mxGeometry relative="1" as="geometry" />
        </mxCell>
        <mxCell id="XXqSQQRsY7wH4g8h98Lb-170" value="Check pre_transform" style="rhombus;whiteSpace=wrap;html=1;" vertex="1" parent="1">
          <mxGeometry x="518.0000000000001" y="3612" width="132.11" height="120" as="geometry" />
        </mxCell>
        <mxCell id="XXqSQQRsY7wH4g8h98Lb-175" style="edgeStyle=orthogonalEdgeStyle;rounded=0;orthogonalLoop=1;jettySize=auto;html=1;exitX=0.5;exitY=1;exitDx=0;exitDy=0;" edge="1" parent="1" source="XXqSQQRsY7wH4g8h98Lb-171" target="XXqSQQRsY7wH4g8h98Lb-173">
          <mxGeometry relative="1" as="geometry">
            <Array as="points">
              <mxPoint x="757" y="3780" />
              <mxPoint x="592" y="3780" />
            </Array>
          </mxGeometry>
        </mxCell>
        <mxCell id="XXqSQQRsY7wH4g8h98Lb-171" value="make kourier request for data pre transformation" style="rounded=1;whiteSpace=wrap;html=1;" vertex="1" parent="1">
          <mxGeometry x="696.7350000000001" y="3642" width="120" height="60" as="geometry" />
        </mxCell>
        <mxCell id="XXqSQQRsY7wH4g8h98Lb-177" value="" style="edgeStyle=orthogonalEdgeStyle;rounded=0;orthogonalLoop=1;jettySize=auto;html=1;" edge="1" parent="1" source="XXqSQQRsY7wH4g8h98Lb-173" target="XXqSQQRsY7wH4g8h98Lb-176">
          <mxGeometry relative="1" as="geometry" />
        </mxCell>
        <mxCell id="XXqSQQRsY7wH4g8h98Lb-173" value="make kourier request for model prediction" style="rounded=1;whiteSpace=wrap;html=1;" vertex="1" parent="1">
          <mxGeometry x="532.1350000000001" y="3832" width="120" height="60" as="geometry" />
        </mxCell>
        <mxCell id="XXqSQQRsY7wH4g8h98Lb-179" value="" style="edgeStyle=orthogonalEdgeStyle;rounded=0;orthogonalLoop=1;jettySize=auto;html=1;" edge="1" parent="1" source="XXqSQQRsY7wH4g8h98Lb-176" target="XXqSQQRsY7wH4g8h98Lb-178">
          <mxGeometry relative="1" as="geometry" />
        </mxCell>
        <mxCell id="XXqSQQRsY7wH4g8h98Lb-183" value="" style="edgeStyle=orthogonalEdgeStyle;rounded=0;orthogonalLoop=1;jettySize=auto;html=1;" edge="1" parent="1" source="XXqSQQRsY7wH4g8h98Lb-176" target="XXqSQQRsY7wH4g8h98Lb-180">
          <mxGeometry relative="1" as="geometry">
            <mxPoint x="591.7884615384614" y="4102" as="targetPoint" />
          </mxGeometry>
        </mxCell>
        <mxCell id="XXqSQQRsY7wH4g8h98Lb-176" value="if output&lt;br&gt;&amp;nbsp;content length is &amp;lt;= 5MB" style="rhombus;whiteSpace=wrap;html=1;" vertex="1" parent="1">
          <mxGeometry x="526.0800000000002" y="3932" width="132.11" height="120" as="geometry" />
        </mxCell>
        <mxCell id="XXqSQQRsY7wH4g8h98Lb-193" style="edgeStyle=orthogonalEdgeStyle;rounded=0;orthogonalLoop=1;jettySize=auto;html=1;exitX=0.5;exitY=1;exitDx=0;exitDy=0;entryX=0.5;entryY=0;entryDx=0;entryDy=0;" edge="1" parent="1" source="XXqSQQRsY7wH4g8h98Lb-178" target="XXqSQQRsY7wH4g8h98Lb-190">
          <mxGeometry relative="1" as="geometry">
            <Array as="points">
              <mxPoint x="754.24" y="4022" />
              <mxPoint x="754.24" y="4242" />
              <mxPoint x="589.24" y="4242" />
            </Array>
          </mxGeometry>
        </mxCell>
        <mxCell id="XXqSQQRsY7wH4g8h98Lb-178" value="return response directly" style="rounded=1;whiteSpace=wrap;html=1;" vertex="1" parent="1">
          <mxGeometry x="714.2450000000003" y="3962" width="120" height="60" as="geometry" />
        </mxCell>
        <mxCell id="XXqSQQRsY7wH4g8h98Lb-192" value="" style="edgeStyle=orthogonalEdgeStyle;rounded=0;orthogonalLoop=1;jettySize=auto;html=1;" edge="1" parent="1" source="XXqSQQRsY7wH4g8h98Lb-180" target="XXqSQQRsY7wH4g8h98Lb-190">
          <mxGeometry relative="1" as="geometry">
            <Array as="points">
              <mxPoint x="592" y="4242" />
              <mxPoint x="590" y="4242" />
            </Array>
          </mxGeometry>
        </mxCell>
        <mxCell id="XXqSQQRsY7wH4g8h98Lb-180" value="upload response into s3 at runtime_folder/model_prediction_response.txt&lt;br&gt;and return the s3 url" style="rounded=1;whiteSpace=wrap;html=1;" vertex="1" parent="1">
          <mxGeometry x="450.69000000000005" y="4122" width="282.1" height="60" as="geometry" />
        </mxCell>
        <mxCell id="XXqSQQRsY7wH4g8h98Lb-184" value="The upload is done using multipart upload fashion, 5MB chunks are uploaded" style="shape=note;whiteSpace=wrap;html=1;backgroundOutline=1;darkOpacity=0.05;" vertex="1" parent="1">
          <mxGeometry x="304.24" y="4087" width="133.44" height="130" as="geometry" />
        </mxCell>
        <mxCell id="XXqSQQRsY7wH4g8h98Lb-195" value="" style="edgeStyle=orthogonalEdgeStyle;rounded=0;orthogonalLoop=1;jettySize=auto;html=1;" edge="1" parent="1" source="XXqSQQRsY7wH4g8h98Lb-190" target="XXqSQQRsY7wH4g8h98Lb-194">
          <mxGeometry relative="1" as="geometry" />
        </mxCell>
        <mxCell id="prCroOAfZP34Jap481pf-8" style="edgeStyle=orthogonalEdgeStyle;rounded=0;orthogonalLoop=1;jettySize=auto;html=1;exitX=0.5;exitY=1;exitDx=0;exitDy=0;entryX=0.5;entryY=0;entryDx=0;entryDy=0;" edge="1" parent="1" source="XXqSQQRsY7wH4g8h98Lb-190" target="XXqSQQRsY7wH4g8h98Lb-196">
          <mxGeometry relative="1" as="geometry" />
        </mxCell>
        <mxCell id="XXqSQQRsY7wH4g8h98Lb-190" value="if post transform present" style="rhombus;whiteSpace=wrap;html=1;" vertex="1" parent="1">
          <mxGeometry x="528.3600000000001" y="4302" width="130.28" height="100" as="geometry" />
        </mxCell>
        <mxCell id="prCroOAfZP34Jap481pf-9" style="edgeStyle=orthogonalEdgeStyle;rounded=0;orthogonalLoop=1;jettySize=auto;html=1;exitX=0.5;exitY=1;exitDx=0;exitDy=0;" edge="1" parent="1" source="XXqSQQRsY7wH4g8h98Lb-194">
          <mxGeometry relative="1" as="geometry">
            <mxPoint x="590" y="4520" as="targetPoint" />
          </mxGeometry>
        </mxCell>
        <mxCell id="XXqSQQRsY7wH4g8h98Lb-194" value="make kourier request for post transformation of data" style="rounded=1;whiteSpace=wrap;html=1;" vertex="1" parent="1">
          <mxGeometry x="700.9" y="4328" width="165.75" height="48" as="geometry" />
        </mxCell>
        <mxCell id="XXqSQQRsY7wH4g8h98Lb-196" value="Return response as per payload_type" style="rounded=1;whiteSpace=wrap;html=1;" vertex="1" parent="1">
          <mxGeometry x="528.3600000000002" y="4520" width="120" height="60" as="geometry" />
        </mxCell>
        <mxCell id="XXqSQQRsY7wH4g8h98Lb-199" value="Model Gateway" style="rounded=0;whiteSpace=wrap;html=1;" vertex="1" parent="1">
          <mxGeometry x="95" y="1570" width="133" height="50" as="geometry" />
        </mxCell>
        <mxCell id="XXqSQQRsY7wH4g8h98Lb-201" value="Raise 401 exception" style="rounded=1;whiteSpace=wrap;html=1;" vertex="1" parent="1">
          <mxGeometry x="714.25" y="2265" width="120" height="60" as="geometry" />
        </mxCell>
        <mxCell id="XXqSQQRsY7wH4g8h98Lb-203" value="Raise 402 exception saying balance insufficient" style="rounded=1;whiteSpace=wrap;html=1;" vertex="1" parent="1">
          <mxGeometry x="705.03" y="2515" width="120" height="60" as="geometry" />
        </mxCell>
        <mxCell id="XXqSQQRsY7wH4g8h98Lb-208" value="" style="edgeStyle=orthogonalEdgeStyle;rounded=0;orthogonalLoop=1;jettySize=auto;html=1;" edge="1" parent="1" source="XXqSQQRsY7wH4g8h98Lb-206" target="XXqSQQRsY7wH4g8h98Lb-207">
          <mxGeometry relative="1" as="geometry" />
        </mxCell>
        <mxCell id="XXqSQQRsY7wH4g8h98Lb-206" value="Check rate limit for user using cached requests" style="rounded=1;whiteSpace=wrap;html=1;" vertex="1" parent="1">
          <mxGeometry x="524.64" y="3080" width="120" height="60" as="geometry" />
        </mxCell>
        <mxCell id="XXqSQQRsY7wH4g8h98Lb-210" value="" style="edgeStyle=orthogonalEdgeStyle;rounded=0;orthogonalLoop=1;jettySize=auto;html=1;" edge="1" parent="1" source="XXqSQQRsY7wH4g8h98Lb-207" target="XXqSQQRsY7wH4g8h98Lb-164">
          <mxGeometry relative="1" as="geometry" />
        </mxCell>
        <mxCell id="XXqSQQRsY7wH4g8h98Lb-212" value="" style="edgeStyle=orthogonalEdgeStyle;rounded=0;orthogonalLoop=1;jettySize=auto;html=1;" edge="1" parent="1" source="XXqSQQRsY7wH4g8h98Lb-207" target="XXqSQQRsY7wH4g8h98Lb-211">
          <mxGeometry relative="1" as="geometry" />
        </mxCell>
        <mxCell id="XXqSQQRsY7wH4g8h98Lb-207" value="if rate limit less than&lt;br&gt;60 rpm" style="rhombus;whiteSpace=wrap;html=1;" vertex="1" parent="1">
          <mxGeometry x="510.64" y="3180" width="148" height="130" as="geometry" />
        </mxCell>
        <mxCell id="XXqSQQRsY7wH4g8h98Lb-211" value="Raise exception, the prediction wont work for 60s" style="rounded=1;whiteSpace=wrap;html=1;" vertex="1" parent="1">
          <mxGeometry x="730.93" y="3215" width="120" height="60" as="geometry" />
        </mxCell>
        <mxCell id="prCroOAfZP34Jap481pf-1" value="" style="edgeStyle=orthogonalEdgeStyle;rounded=0;orthogonalLoop=1;jettySize=auto;html=1;exitX=1;exitY=0.5;exitDx=0;exitDy=0;" edge="1" parent="1" source="XXqSQQRsY7wH4g8h98Lb-154" target="prCroOAfZP34Jap481pf-2">
          <mxGeometry relative="1" as="geometry">
            <mxPoint x="641.75" y="2725" as="sourcePoint" />
          </mxGeometry>
        </mxCell>
        <mxCell id="prCroOAfZP34Jap481pf-2" value="Raise 403 exception saying the same" style="rounded=1;whiteSpace=wrap;html=1;" vertex="1" parent="1">
          <mxGeometry x="723.78" y="2695" width="120" height="60" as="geometry" />
        </mxCell>
        <mxCell id="prCroOAfZP34Jap481pf-3" value="Raise model not deployed exception" style="rounded=1;whiteSpace=wrap;html=1;" vertex="1" parent="1">
          <mxGeometry x="729.6400000000001" y="3462" width="120" height="60" as="geometry" />
        </mxCell>
        <mxCell id="prCroOAfZP34Jap481pf-11" value="" style="edgeStyle=orthogonalEdgeStyle;rounded=0;orthogonalLoop=1;jettySize=auto;html=1;" edge="1" parent="1" source="prCroOAfZP34Jap481pf-10" target="XXqSQQRsY7wH4g8h98Lb-112">
          <mxGeometry relative="1" as="geometry" />
        </mxCell>
        <mxCell id="prCroOAfZP34Jap481pf-10" value="/predict API" style="rounded=1;whiteSpace=wrap;html=1;" vertex="1" parent="1">
          <mxGeometry x="294" y="1645" width="120" height="60" as="geometry" />
        </mxCell>
        <mxCell id="prCroOAfZP34Jap481pf-13" value="NO" style="text;html=1;align=center;verticalAlign=middle;resizable=0;points=[];autosize=1;strokeColor=none;fillColor=none;" vertex="1" parent="1">
          <mxGeometry x="409.87" y="1930" width="40" height="30" as="geometry" />
        </mxCell>
        <mxCell id="prCroOAfZP34Jap481pf-14" value="NO" style="text;html=1;align=center;verticalAlign=middle;resizable=0;points=[];autosize=1;strokeColor=none;fillColor=none;" vertex="1" parent="1">
          <mxGeometry x="266.9" y="1760" width="40" height="30" as="geometry" />
        </mxCell>
        <mxCell id="prCroOAfZP34Jap481pf-15" value="NO" style="text;html=1;align=center;verticalAlign=middle;resizable=0;points=[];autosize=1;strokeColor=none;fillColor=none;" vertex="1" parent="1">
          <mxGeometry x="409.87" y="2100" width="40" height="30" as="geometry" />
        </mxCell>
        <mxCell id="prCroOAfZP34Jap481pf-16" value="NO" style="text;html=1;align=center;verticalAlign=middle;resizable=0;points=[];autosize=1;strokeColor=none;fillColor=none;" vertex="1" parent="1">
          <mxGeometry x="644.36" y="2260" width="40" height="30" as="geometry" />
        </mxCell>
        <mxCell id="prCroOAfZP34Jap481pf-17" value="NO" style="text;html=1;align=center;verticalAlign=middle;resizable=0;points=[];autosize=1;strokeColor=none;fillColor=none;" vertex="1" parent="1">
          <mxGeometry x="631.75" y="2510" width="40" height="30" as="geometry" />
        </mxCell>
        <mxCell id="prCroOAfZP34Jap481pf-18" value="NO" style="text;html=1;align=center;verticalAlign=middle;resizable=0;points=[];autosize=1;strokeColor=none;fillColor=none;" vertex="1" parent="1">
          <mxGeometry x="651.74" y="2690" width="40" height="30" as="geometry" />
        </mxCell>
        <mxCell id="prCroOAfZP34Jap481pf-19" value="NO" style="text;html=1;align=center;verticalAlign=middle;resizable=0;points=[];autosize=1;strokeColor=none;fillColor=none;" vertex="1" parent="1">
          <mxGeometry x="540.03" y="3035" width="40" height="30" as="geometry" />
        </mxCell>
        <mxCell id="prCroOAfZP34Jap481pf-20" value="NO" style="text;html=1;align=center;verticalAlign=middle;resizable=0;points=[];autosize=1;strokeColor=none;fillColor=none;" vertex="1" parent="1">
          <mxGeometry x="671.75" y="3210" width="40" height="30" as="geometry" />
        </mxCell>
        <mxCell id="prCroOAfZP34Jap481pf-21" value="NO" style="text;html=1;align=center;verticalAlign=middle;resizable=0;points=[];autosize=1;strokeColor=none;fillColor=none;" vertex="1" parent="1">
          <mxGeometry x="658.64" y="3462" width="40" height="30" as="geometry" />
        </mxCell>
        <mxCell id="4cX-LUjoZkq4VsVeSsfY-1" value="NO" style="text;html=1;align=center;verticalAlign=middle;resizable=0;points=[];autosize=1;strokeColor=none;fillColor=none;" vertex="1" parent="1">
          <mxGeometry x="538" y="3732" width="40" height="30" as="geometry" />
        </mxCell>
        <mxCell id="4cX-LUjoZkq4VsVeSsfY-2" value="NO" style="text;html=1;align=center;verticalAlign=middle;resizable=0;points=[];autosize=1;strokeColor=none;fillColor=none;" vertex="1" parent="1">
          <mxGeometry x="549.25" y="4052" width="40" height="30" as="geometry" />
        </mxCell>
        <mxCell id="4cX-LUjoZkq4VsVeSsfY-3" value="NO" style="text;html=1;align=center;verticalAlign=middle;resizable=0;points=[];autosize=1;strokeColor=none;fillColor=none;" vertex="1" parent="1">
          <mxGeometry x="549.25" y="4410" width="40" height="30" as="geometry" />
        </mxCell>
        <mxCell id="4cX-LUjoZkq4VsVeSsfY-4" value="YES" style="text;html=1;align=center;verticalAlign=middle;resizable=0;points=[];autosize=1;strokeColor=none;fillColor=none;" vertex="1" parent="1">
          <mxGeometry x="128" y="1840" width="50" height="30" as="geometry" />
        </mxCell>
        <mxCell id="4cX-LUjoZkq4VsVeSsfY-5" value="YES" style="text;html=1;align=center;verticalAlign=middle;resizable=0;points=[];autosize=1;strokeColor=none;fillColor=none;" vertex="1" parent="1">
          <mxGeometry x="266.9" y="1835" width="50" height="30" as="geometry" />
        </mxCell>
        <mxCell id="4cX-LUjoZkq4VsVeSsfY-6" value="YES" style="text;html=1;align=center;verticalAlign=middle;resizable=0;points=[];autosize=1;strokeColor=none;fillColor=none;" vertex="1" parent="1">
          <mxGeometry x="275" y="2000" width="50" height="30" as="geometry" />
        </mxCell>
        <mxCell id="4cX-LUjoZkq4VsVeSsfY-7" value="YES" style="text;html=1;align=center;verticalAlign=middle;resizable=0;points=[];autosize=1;strokeColor=none;fillColor=none;" vertex="1" parent="1">
          <mxGeometry x="437.68" y="2260" width="50" height="30" as="geometry" />
        </mxCell>
        <mxCell id="4cX-LUjoZkq4VsVeSsfY-8" value="YES" style="text;html=1;align=center;verticalAlign=middle;resizable=0;points=[];autosize=1;strokeColor=none;fillColor=none;" vertex="1" parent="1">
          <mxGeometry x="447.53000000000003" y="2510" width="50" height="30" as="geometry" />
        </mxCell>
        <mxCell id="4cX-LUjoZkq4VsVeSsfY-9" value="YES" style="text;html=1;align=center;verticalAlign=middle;resizable=0;points=[];autosize=1;strokeColor=none;fillColor=none;" vertex="1" parent="1">
          <mxGeometry x="419.93" y="2690" width="50" height="30" as="geometry" />
        </mxCell>
        <mxCell id="4cX-LUjoZkq4VsVeSsfY-10" value="YES" style="text;html=1;align=center;verticalAlign=middle;resizable=0;points=[];autosize=1;strokeColor=none;fillColor=none;" vertex="1" parent="1">
          <mxGeometry x="691.74" y="2935" width="50" height="30" as="geometry" />
        </mxCell>
        <mxCell id="4cX-LUjoZkq4VsVeSsfY-11" value="YES" style="text;html=1;align=center;verticalAlign=middle;resizable=0;points=[];autosize=1;strokeColor=none;fillColor=none;" vertex="1" parent="1">
          <mxGeometry x="589.25" y="3310" width="50" height="30" as="geometry" />
        </mxCell>
        <mxCell id="4cX-LUjoZkq4VsVeSsfY-12" value="YES" style="text;html=1;align=center;verticalAlign=middle;resizable=0;points=[];autosize=1;strokeColor=none;fillColor=none;" vertex="1" parent="1">
          <mxGeometry x="591.75" y="3560" width="50" height="30" as="geometry" />
        </mxCell>
        <mxCell id="4cX-LUjoZkq4VsVeSsfY-13" value="YES" style="text;html=1;align=center;verticalAlign=middle;resizable=0;points=[];autosize=1;strokeColor=none;fillColor=none;" vertex="1" parent="1">
          <mxGeometry x="644.36" y="3640" width="50" height="30" as="geometry" />
        </mxCell>
        <mxCell id="4cX-LUjoZkq4VsVeSsfY-14" value="YES" style="text;html=1;align=center;verticalAlign=middle;resizable=0;points=[];autosize=1;strokeColor=none;fillColor=none;" vertex="1" parent="1">
          <mxGeometry x="658" y="3960" width="50" height="30" as="geometry" />
        </mxCell>
        <mxCell id="4cX-LUjoZkq4VsVeSsfY-15" value="YES" style="text;html=1;align=center;verticalAlign=middle;resizable=0;points=[];autosize=1;strokeColor=none;fillColor=none;" vertex="1" parent="1">
          <mxGeometry x="648.64" y="4320" width="50" height="30" as="geometry" />
        </mxCell>
        <mxCell id="Gk5-kgsP5VQ0AQUiWki0-4" style="edgeStyle=orthogonalEdgeStyle;rounded=0;orthogonalLoop=1;jettySize=auto;html=1;entryX=0.584;entryY=1;entryDx=0;entryDy=0;entryPerimeter=0;" edge="1" parent="1" source="Gk5-kgsP5VQ0AQUiWki0-1" target="XXqSQQRsY7wH4g8h98Lb-34">
          <mxGeometry relative="1" as="geometry" />
        </mxCell>
        <mxCell id="Gk5-kgsP5VQ0AQUiWki0-5" value="No&lt;div&gt;&lt;br&gt;&lt;/div&gt;" style="edgeLabel;html=1;align=center;verticalAlign=middle;resizable=0;points=[];" connectable="0" vertex="1" parent="Gk5-kgsP5VQ0AQUiWki0-4">
          <mxGeometry x="-0.1671" y="3" relative="1" as="geometry">
            <mxPoint as="offset" />
          </mxGeometry>
        </mxCell>
        <mxCell id="Gk5-kgsP5VQ0AQUiWki0-1" value="env_type&lt;div&gt;==streamlit&lt;/div&gt;" style="rhombus;whiteSpace=wrap;html=1;" vertex="1" parent="1">
          <mxGeometry x="-460" y="722.5" width="115" height="85" as="geometry" />
        </mxCell>
        <mxCell id="Gk5-kgsP5VQ0AQUiWki0-2" style="edgeStyle=orthogonalEdgeStyle;rounded=0;orthogonalLoop=1;jettySize=auto;html=1;entryX=0.588;entryY=0.004;entryDx=0;entryDy=0;entryPerimeter=0;" edge="1" parent="1" source="Gk5-kgsP5VQ0AQUiWki0-1" target="XXqSQQRsY7wH4g8h98Lb-39">
          <mxGeometry relative="1" as="geometry" />
        </mxCell>
        <mxCell id="Gk5-kgsP5VQ0AQUiWki0-3" value="Yes" style="edgeLabel;html=1;align=center;verticalAlign=middle;resizable=0;points=[];" connectable="0" vertex="1" parent="Gk5-kgsP5VQ0AQUiWki0-2">
          <mxGeometry x="-0.0943" relative="1" as="geometry">
            <mxPoint as="offset" />
          </mxGeometry>
        </mxCell>
        <mxCell id="Gk5-kgsP5VQ0AQUiWki0-6" value="&lt;h1 style=&quot;margin-top: 0px;&quot;&gt;Security&lt;/h1&gt;&lt;p&gt;- Predict API is authenticated and authorised using JWT tokens&lt;/p&gt;&lt;p&gt;- proxy API are exposed using API gateway, internal APIs that are used for streamlit environment and frontend environment are not exposed publicly&lt;/p&gt;&lt;p&gt;- The Authorisation of models in Model Gateway will allow only the listed models to be called from app.&lt;/p&gt;&lt;p&gt;- The Apps and Models themselves have RBAC Authorisation checks in Model Gateway so that private Apps/Models are not available publicly to other users than owner.&lt;/p&gt;&lt;p&gt;- Circuit breakers are set at python Vipas SDK to break overwhelming failure retries if any.&lt;/p&gt;&lt;p&gt;-&amp;nbsp; Rate-limit is set to 60 rps per user to prevent DDOS attacks&lt;/p&gt;" style="text;html=1;whiteSpace=wrap;overflow=hidden;rounded=0;" vertex="1" parent="1">
          <mxGeometry x="-650" y="4740" width="180" height="480" as="geometry" />
        </mxCell>
        <mxCell id="Gk5-kgsP5VQ0AQUiWki0-7" value="&lt;h1 style=&quot;margin-top: 0px;&quot;&gt;Scalability&lt;/h1&gt;&lt;p&gt;- The control services in the flow like proxy, model gateway are horizontally scaled to accommodate heavy request flows.&lt;/p&gt;&lt;p&gt;- The model pods and app pods in knative services are auto scaled as per requests flow.&lt;/p&gt;" style="text;html=1;whiteSpace=wrap;overflow=hidden;rounded=0;" vertex="1" parent="1">
          <mxGeometry x="-330" y="4740" width="180" height="180" as="geometry" />
        </mxCell>
        <mxCell id="Gk5-kgsP5VQ0AQUiWki0-8" value="&lt;h1 style=&quot;margin-top: 0px;&quot;&gt;Robustness&lt;/h1&gt;&lt;p&gt;Lorem ipsum dolor sit amet, consectetur adipisicing elit, sed do eiusmod tempor incididunt ut labore et dolore magna aliqua.&lt;/p&gt;" style="text;html=1;whiteSpace=wrap;overflow=hidden;rounded=0;" vertex="1" parent="1">
          <mxGeometry x="30" y="4740" width="180" height="120" as="geometry" />
        </mxCell>
        <mxCell id="Gk5-kgsP5VQ0AQUiWki0-9" value="&lt;h1 style=&quot;margin-top: 0px;&quot;&gt;Reliability&lt;/h1&gt;&lt;p&gt;Lorem ipsum dolor sit amet, consectetur adipisicing elit, sed do eiusmod tempor incididunt ut labore et dolore magna aliqua.&lt;/p&gt;" style="text;html=1;whiteSpace=wrap;overflow=hidden;rounded=0;" vertex="1" parent="1">
          <mxGeometry x="442.53" y="4740" width="180" height="120" as="geometry" />
        </mxCell>
      </root>
    </mxGraphModel>
  </diagram>
</mxfile>
